<svg width="24" height="24" viewBox="0 0 24 24" fill="none" xmlns="http://www.w3.org/2000/svg">
<path fill-rule="evenodd" clip-rule="evenodd" d="M12.5606 12.8635C14.7085 13.1951 14.9988 14.4659 15.1724 15.6488L15.2014 15.8504L15.2211 15.9877L15.3257 16.6838C15.5303 18.0128 15.9571 20.7716 15.9571 22.2113C15.9571 22.571 15.9255 22.8472 15.8677 22.9989C15.7713 23.2327 15.4905 23.4571 15.1027 23.6442C14.1646 23.8751 13.184 24 12.1739 24C12.0669 24 11.9617 23.9948 11.8561 23.9917C11.4479 23.8757 11.141 23.6822 10.9786 23.4176C10.4881 22.6192 10.4585 20.8403 10.4487 18.7614L10.4476 18.5203L10.4436 17.8972C10.4276 15.6964 10.4139 13.7989 11.2135 13.118C11.5231 12.8561 11.9632 12.7694 12.5606 12.8635ZM7.87778 17.6549C8.34323 17.6287 8.64255 19.9181 8.7027 21.6541C8.74485 22.8627 8.61795 23.3599 8.4153 23.5384C8.18588 23.4618 7.96043 23.3789 7.73828 23.2889C7.59008 23.0196 7.4768 22.596 7.40484 22.0412C7.18514 20.2975 7.37599 17.6856 7.87778 17.6549ZM19.5466 21.076C19.5176 21.235 19.4767 21.3579 19.4262 21.4615C19.0283 21.7809 18.61 22.0741 18.1723 22.3379C18.0329 22.3613 17.909 22.345 17.8485 22.2427C17.2684 21.2234 17.0507 18.0256 17.612 17.7473C18.344 17.3938 19.6552 20.5232 19.5466 21.076ZM12.0006 0C18.5359 0 23.8504 5.17546 23.997 11.6155L24 11.8381V11.941C23.988 14.85 22.9174 17.5114 21.1537 19.5714C21.0898 19.5393 20.9731 19.4342 20.7617 19.118C20.5429 18.8 18.6562 15.8965 18.6562 12.5686C18.6562 11.9155 19.5976 10.8953 20.4306 9.99975C21.0533 9.32588 21.6432 8.69025 21.8604 8.19068C22.1371 7.54605 21.9435 7.09594 21.6374 6.94337C21.3602 6.80777 20.9442 6.90668 20.6522 7.42523C20.1731 8.26448 20.0196 8.4213 19.3207 8.98283C18.6331 9.54405 17.5398 10.109 17.5398 9.3777C17.5398 8.98282 18.1487 8.08853 18.4496 7.46168C18.7568 6.82783 18.4256 6.36897 17.7913 6.36897C16.5456 6.36897 15.7187 7.95578 15.7187 8.50553C15.7187 9.05483 15.9852 9.13305 15.9852 9.77273C15.9852 10.4172 14.6185 11.2531 13.331 11.2531C12.0915 11.2531 11.3727 11.0023 11.0749 10.2955L11.0368 10.1962L10.9508 9.94155C10.6454 9.04897 10.4263 8.40165 10.0449 7.72515C9.8424 7.3674 9.52995 7.11939 9.25973 6.90117C8.90655 6.62684 8.72332 6.37426 8.68507 6.18588C8.64982 5.99899 8.63085 5.64678 9.2346 4.83488C9.83708 4.02761 9.92153 3.41775 9.62003 3.10307C9.51075 2.99113 9.32445 2.9194 9.0852 2.9194C8.66205 2.9194 8.07405 3.14362 7.46809 3.75949C6.52612 4.7247 7.06088 5.64112 7.06088 6.04341C7.06088 6.44544 6.88831 6.67285 6.32303 7.2198C5.75361 7.76917 5.55709 8.24018 5.49196 10.1332C5.46701 11.1085 5.29523 11.67 5.14103 12.1679C5.00779 12.6042 4.88525 13.0145 4.87862 13.6072C4.86807 14.264 4.97741 14.6873 5.105 15.1757C5.23027 15.6272 5.36332 16.1444 5.44856 17.0097C5.58415 18.3491 5.53701 19.4806 5.2905 20.637L5.22471 20.9267L5.20933 21.01C5.15885 21.2132 5.09885 21.46 5.01773 21.5525C1.98057 19.3953 0 15.8722 0 11.8898C0 5.32382 5.37262 0 12.0006 0Z" fill="white"/>
</svg>
