<svg width="64" height="64" viewBox="0 0 64 64" fill="none" xmlns="http://www.w3.org/2000/svg">
<path fill-rule="evenodd" clip-rule="evenodd" d="M64 32C64 49.673 49.673 64 32 64C14.3269 64 0 49.673 0 32C0 14.3269 14.3269 0 32 0C49.673 0 64 14.3269 64 32Z" fill="#00CB8D"/>
<path fill-rule="evenodd" clip-rule="evenodd" d="M44.897 22.3029C45.8343 23.2402 45.8343 24.7598 44.897 25.6969L28.897 41.6969C27.9597 42.6342 26.4403 42.6342 25.503 41.6969L19.103 35.2969C18.1657 34.3596 18.1657 32.8403 19.103 31.903C20.0402 30.9657 21.5598 30.9657 22.4971 31.903L27.2 36.6057L34.3514 29.4544L41.5031 22.3029C42.4403 21.3657 43.9597 21.3657 44.897 22.3029Z" fill="white"/>
</svg>
