<svg width="64" height="64" viewBox="0 0 64 64" fill="none" xmlns="http://www.w3.org/2000/svg">
<path d="M32 0C14.368 0 0 14.368 0 32C0 49.632 14.368 64 32 64C49.632 64 64 49.632 64 32C64 14.368 49.632 0 32 0Z" fill="#E56464"/>
<path d="M42.7518 39.36C43.6798 40.288 43.6798 41.824 42.7518 42.752C42.2718 43.232 41.6638 43.456 41.0558 43.456C40.4478 43.456 39.8398 43.232 39.3598 42.752L31.9998 35.392L24.6398 42.752C24.1598 43.232 23.5518 43.456 22.9438 43.456C22.3358 43.456 21.7278 43.232 21.2478 42.752C20.3198 41.824 20.3198 40.288 21.2478 39.36L28.6078 32L21.2478 24.64C20.3198 23.712 20.3198 22.176 21.2478 21.248C22.1758 20.32 23.7118 20.32 24.6398 21.248L31.9998 28.608L39.3598 21.248C40.2878 20.32 41.8238 20.32 42.7518 21.248C43.6798 22.176 43.6798 23.712 42.7518 24.64L35.3918 32L42.7518 39.36Z" fill="white"/>
</svg>
